<svg width="1440" height="320" xmlns="http://www.w3.org/2000/svg">
 <g>
  <title>background</title>
  <rect fill="#ffffff" id="canvas_background" height="322" width="1442" y="-1" x="-1"/>
 </g>
 <g>
  <title>Layer 1</title>
  <g id="svg_5">
   <path id="svg_4" d="m-1.33333,224.94075l40.07407,0c40.07407,0 120.22222,0 200.37036,15.98517c80.14815,15.98517 160.29629,47.95552 240.44444,47.95552c80.14815,0 160.29629,-31.97034 240.44444,-79.92586c80.14815,-47.95552 160.29629,-111.89621 240.44444,-111.89621c80.14815,0 160.29629,63.94069 240.44444,58.6456c80.14815,-5.69472 160.29629,-79.62614 200.37036,-117.2912l40.07407,-37.26543l0,319.70345l-40.07407,0c-40.07407,0 -120.22222,0 -200.37036,0c-80.14815,0 -160.29629,0 -240.44444,0c-80.14815,0 -160.29629,0 -240.44444,0c-80.14815,0 -160.29629,0 -240.44444,0c-80.14815,0 -160.29629,0 -240.44444,0c-80.14815,0 -160.29629,0 -200.37036,0l-40.07407,0l0,-95.91103z" fill-opacity="0.6" fill="#5c6bc0"/>
  </g>
  <g id="svg_10">
   <path id="svg_9" d="m-0.33342,356.74071l40.0463,-17.74074c40.0463,-17.74074 120.1389,-53.22222 200.2315,-53.22222c80.0926,0 160.1852,35.48148 240.2778,23.61736c80.0926,-11.4206 160.1852,-71.2956 240.2778,-76.83958c80.0926,-5.54398 160.1852,41.02546 240.2778,53.22222c80.0926,12.19676 160.1852,-12.19676 240.2778,-35.48148c80.0926,-23.28472 160.1852,-47.67824 200.2315,-59.09884l40.0463,-11.86412l0,319.33331l-40.0463,0c-40.0463,0 -120.1389,0 -200.2315,0c-80.0926,0 -160.1852,0 -240.2778,0c-80.0926,0 -160.1852,0 -240.2778,0c-80.0926,0 -160.1852,0 -240.2778,0c-80.0926,0 -160.1852,0 -240.2778,0c-80.0926,0 -160.1852,0 -200.2315,0l-40.0463,0l0,-141.92591z" fill="#5c6bc0"/>
  </g>
 </g>
</svg>